Coordinates
version=1
nRows=26
nColumns=24
inDegrees=yes

Units are S.I. units (second, meters, Newtons, ...)
Angles are in degrees.

endheader
time	pelvis_tilt	pelvis_list	pelvis_rotation	pelvis_tx	pelvis_ty	pelvis_tz	hip_flexion_r	hip_adduction_r	hip_rotation_r	knee_angle_r	ankle_angle_r	subtalar_angle_r	mtp_angle_r	hip_flexion_l	hip_adduction_l	hip_rotation_l	knee_angle_l	ankle_angle_l	subtalar_angle_l	mtp_angle_l	lumbar_extension	lumbar_bending	lumbar_rotation
     15.30000000	     -1.15084553	     -3.67716754	   -268.46855722	      0.02643049	      0.13558895	     -1.91346633	      1.27819342	      1.79364765	    -16.20335770	     -9.39340495	      4.25725760	     -3.50370700	      5.21512896	     26.81833330	     -5.54968248	     -6.78713494	    -48.70154643	     -6.02752107	     11.19683715	     14.51809704	     -7.60552016	     -4.33734607	      2.87480619
     15.30500000	     -1.20420973	     -3.74658919	   -268.66692320	      0.02678933	      0.13518680	     -1.91277855	      0.84211570	      1.81599202	    -16.04986720	     -9.06597671	      4.87887102	     -3.27437743	      3.47691160	     27.18977568	     -5.38725775	     -6.82081330	    -47.42679813	     -5.65926304	     11.08741041	     14.17575758	     -7.58669670	     -4.46485901	      3.17216118
     15.31000000	     -1.20811660	     -3.83628998	   -268.83574281	      0.02693867	      0.13466690	     -1.91221173	      0.43490068	      1.86716352	    -16.01652353	     -8.81164539	      5.10619441	     -3.14646556	      3.50708304	     27.57523690	     -5.25683453	     -6.79483849	    -46.14774950	     -5.31070081	     10.90143918	     14.16970039	     -7.52791988	     -4.51828516	      3.46760415
     15.31500000	     -1.21934536	     -3.89665238	   -268.99786793	      0.02721239	      0.13416803	     -1.91151079	      0.02547461	      1.90056725	    -16.13797327	     -8.55606578	      5.22891014	     -2.75331357	      3.61427578	     27.91104498	     -5.13490395	     -6.76490267	    -44.80179386	     -4.91858746	     10.74587982	     13.39376849	     -7.52079482	     -4.59280306	      3.74142688
     15.32000000	     -1.22583900	     -3.96677796	   -269.15751864	      0.02748701	      0.13356827	     -1.91082081	     -0.39155837	      1.95661820	    -16.01957458	     -8.31137438	      5.45804867	     -2.73506620	      3.66773903	     28.20751659	     -5.00069063	     -6.62832888	    -43.41454621	     -4.53227003	     10.61872403	     13.35686464	     -7.50360107	     -4.66418994	      4.00084644
     15.32500000	     -1.22605841	     -4.04252381	   -269.29634960	      0.02765927	      0.13284921	     -1.91007596	     -0.77036568	      1.98160956	    -16.16406237	     -8.06337237	      5.54759378	     -2.52184438	      3.69308433	     28.51757288	     -4.86257434	     -6.51215070	    -41.98262044	     -4.21914355	     10.50731056	     13.32407398	     -7.49086516	     -4.72813510	      4.28787342
     15.33000000	     -1.20616353	     -4.12070542	   -269.43088542	      0.02802957	      0.13208315	     -1.90929025	     -1.15375103	      2.07810957	    -15.96674251	     -7.88659635	      5.87021979	     -2.46119975	      3.76163453	     28.82127762	     -4.77308921	     -6.40576186	    -40.52889749	     -3.96827395	     10.30576008	     13.25521407	     -7.48175573	     -4.78175304	      4.50663944
     15.33500000	     -1.18390514	     -4.21350442	   -269.58505252	      0.02810806	      0.13121286	     -1.90865862	     -1.50961029	      2.13143115	    -15.93727710	     -7.71763386	      6.21385899	     -2.21422050	      3.73613660	     29.10034853	     -4.64845919	     -6.24205439	    -39.03861953	     -3.32776942	      9.82365868	     11.25982700	     -7.43669040	     -4.79825213	      4.75606619
     15.34000000	     -1.13892733	     -4.26696916	   -269.71662742	      0.02829926	      0.13032946	     -1.90799223	     -1.92043102	      2.22849551	    -15.83903991	     -7.52759302	      6.46826928	     -2.23350110	      3.77382807	     29.31554973	     -4.58272331	     -6.09003770	    -37.51561410	     -3.07595515	      9.65335150	     11.26824971	     -7.44264218	     -4.81977655	      5.02746851
     15.34500000	     -1.11040845	     -4.32312430	   -269.85858664	      0.02846983	      0.12940417	     -1.90733955	     -2.30027950	      2.29539856	    -15.72511076	     -7.38760918	      6.73501008	     -2.20714859	      3.79711839	     29.50293535	     -4.49900124	     -5.96118761	    -35.93889437	     -2.85733348	      9.37833966	     11.23549225	     -7.44610310	     -4.84754333	      5.27782347
     15.35000000	     -1.06568164	     -4.41694810	   -269.99709643	      0.02859222	      0.12836894	     -1.90666057	     -2.65489587	      2.37971655	    -15.65017205	     -7.21775083	      7.01820754	     -2.13530902	      3.78811857	     29.72610046	     -4.42410381	     -5.79537147	    -34.34051775	     -2.69509939	      8.78735567	     11.01274908	     -7.40817642	     -4.86412428	      5.54336472
     15.35500000	     -1.03525363	     -4.45533008	   -270.11278510	      0.02864811	      0.12736027	     -1.90603812	     -3.06136424	      2.43534778	    -15.56300733	     -7.08671623	      7.33187822	     -2.03543692	      3.49446780	     29.84627477	     -4.31056108	     -5.55720078	    -32.69374781	     -2.10082215	      8.26064163	      8.83456491	     -7.43057369	     -4.87702421	      5.73380034
     15.36000000	     -0.99087931	     -4.49031558	   -270.29038084	      0.02875916	      0.12635237	     -1.90542713	     -3.49111598	      2.51876465	    -15.32515891	     -6.90340709	      7.57090628	     -2.15022558	      3.50765472	     29.92660495	     -4.25642774	     -5.41934026	    -31.00951468	     -1.79585095	      7.75196705	      7.97247383	     -7.44453626	     -4.89613999	      6.05748574
     15.36500000	     -0.96186153	     -4.51712337	   -270.40753170	      0.02876626	      0.12532222	     -1.90490154	     -3.93892960	      2.57333069	    -15.23134053	     -6.72749647	      7.83045903	     -2.15793454	      3.56128361	     29.99667850	     -4.18773866	     -5.31540645	    -29.30934586	     -1.69356592	      7.17030447	      7.99756804	     -7.47094889	     -4.91856235	      6.28552020
     15.37000000	     -0.92907826	     -4.54450316	   -270.55409693	      0.02879808	      0.12422801	     -1.90433660	     -4.37883565	      2.63720823	    -15.04422082	     -6.56704177	      8.13067034	     -2.21139369	      3.59753549	     30.05834438	     -4.15651307	     -5.31120343	    -27.61288718	     -1.54865174	      6.78541797	      7.90769258	     -7.49355212	     -4.94513593	      6.55349273
     15.37500000	     -0.88792104	     -4.57349874	   -270.66932915	      0.02873112	      0.12311279	     -1.90388138	     -4.81833950	      2.68956140	    -14.91272951	     -6.41195296	      8.47436274	     -2.20142064	      3.40992054	     30.08825090	     -4.09044516	     -5.07815975	    -25.89463362	     -1.11084144	      6.17098059	      6.68535750	     -7.51112794	     -4.94230144	      6.73510758
     15.38000000	     -0.82102421	     -4.60456523	   -270.80634440	      0.02869889	      0.12193052	     -1.90345156	     -5.24891730	      2.76928450	    -14.70644101	     -6.26862529	      8.66346991	     -2.16945893	      3.42861706	     30.13886112	     -4.09034413	     -5.00757014	    -24.22648825	     -0.95278901	      5.62479401	      6.62550456	     -7.52183153	     -4.93167545	      7.00033563
     15.38500000	     -0.78559180	     -4.63393494	   -270.94435742	      0.02862629	      0.12074357	     -1.90306786	     -5.70142043	      2.81219018	    -14.54352445	     -6.08610851	      8.93854128	     -2.13072073	      3.43571226	     30.15754402	     -4.07398395	     -5.02403015	    -22.54398170	     -0.70646094	      5.16815659	      6.42252160	     -7.52529034	     -4.94665729	      7.24827519
     15.39000000	     -0.73154587	     -4.64478392	   -271.06809267	      0.02865522	      0.11953815	     -1.90251744	     -6.16416468	      2.87911431	    -14.39920345	     -5.90786347	      9.17651009	     -2.20450556	      3.41010310	     30.17555589	     -4.07073131	     -5.00542974	    -20.87972946	     -0.48029527	      4.64365361	      6.17297280	     -7.57064751	     -4.96555929	      7.49283806
     15.39500000	     -0.67453146	     -4.63435047	   -271.18564966	      0.02851851	      0.11831676	     -1.90213597	     -6.62367450	      2.93262273	    -14.18827281	     -5.81556065	      9.43247555	     -2.24498438	      3.43141743	     30.14065550	     -4.08973315	     -5.10709517	    -19.22429527	     -0.18420351	      4.39999667	      6.08699544	     -7.63156911	     -4.94586308	      7.67095477
     15.40000000	     -0.60866236	     -4.70299295	   -271.30763990	      0.02835273	      0.11700598	     -1.90169438	     -6.98894413	      2.99135427	    -13.95022491	     -5.72614038	      9.74123973	     -2.30876450	      2.65526248	     30.18990847	     -4.08463326	     -5.05343428	    -17.57770869	      0.41661508	      3.64253627	      3.49053750	     -7.60764905	     -4.92333156	      7.88637433
     15.40500000	     -0.54477362	     -4.70636768	   -271.43145330	      0.02818469	      0.11570256	     -1.90135207	     -7.42039404	      3.03556361	    -13.83942146	     -5.65768247	     10.04838753	     -2.29245254	      2.72051251	     30.11150426	     -4.11353393	     -5.23182053	    -15.88974777	      0.61471143	      3.42942997	      3.46530177	     -7.64823161	     -4.90505631	      8.09496761
     15.41000000	     -0.54350058	     -4.77710613	   -271.59506659	      0.02790097	      0.11434043	     -1.90103432	     -7.74245891	      2.98958691	    -13.62118277	     -5.65744748	     10.31277039	     -2.34059105	      2.75465250	     30.09464297	     -4.07102563	     -5.29127873	    -14.21769587	      0.82421214	      2.87463578	      3.17124435	     -7.60542223	     -4.93036838	      8.31664387
     15.41500000	     -0.50936236	     -4.75565169	   -271.67899353	      0.02758560	      0.11307168	     -1.90087191	     -8.22230701	      2.99503184	    -13.51193381	     -5.57816322	     10.61035709	     -2.28219177	      2.77673475	     29.95500157	     -4.02886315	     -5.46925367	    -12.56709997	      0.98384285	      2.54112830	      2.96008231	     -7.65033819	     -4.93673718	      8.50082622
     15.42000000	     -0.55181586	     -4.71072386	   -271.80525796	      0.02732804	      0.11178741	     -1.90123452	     -8.77024128	      2.91532347	    -13.37944513	     -5.47068138	     10.89950757	     -2.27833444	      2.53408975	     29.69457235	     -3.92252797	     -5.67319669	    -10.89274383	      1.56425116	      2.02176166	      1.11816705	     -7.65462238	     -5.01912384	      8.65783745
     15.42500000	     -0.53371758	     -4.70101131	   -271.87933144	      0.02692778	      0.11052393	     -1.90096888	     -9.15148296	      2.88561994	    -13.36599848	     -5.52568257	     11.14062070	     -2.27907154	      2.56623388	     29.56395993	     -3.84436872	     -5.98044742	     -9.33970525	      1.70482508	      1.76953829	      1.11528555	     -7.71040424	     -5.01892463	      8.77115138
